<svg xmlns="http://www.w3.org/2000/svg" viewBox="0 0 320 240" role="img" aria-label="Khula register aur pencil">
  <ellipse cx="160" cy="208" rx="110" ry="12" fill="#1d4ed8" opacity="0.12"/>
  <circle cx="160" cy="120" r="86" fill="none" stroke="#f97316" stroke-width="3" stroke-dasharray="10 9" opacity="0.8"/>
  <path d="M96 142 Q128 128 160 142 L160 176 Q128 162 96 176 Z" fill="#fff" stroke="#1d4ed8" stroke-width="3.5" stroke-linejoin="round"/>
  <path d="M160 142 Q192 128 224 142 L224 176 Q192 162 160 176" fill="#fff" stroke="#1d4ed8" stroke-width="3.5" stroke-linejoin="round"/>
  <line x1="160" y1="142" x2="160" y2="176" stroke="#1d4ed8" stroke-width="3.5"/>
  <line x1="112" y1="150" x2="142" y2="150" stroke="#f97316" stroke-width="3" stroke-linecap="round"/>
  <line x1="178" y1="150" x2="208" y2="150" stroke="#f97316" stroke-width="3" stroke-linecap="round"/>
  <line x1="178" y1="160" x2="202" y2="160" stroke="#f97316" stroke-width="3" stroke-linecap="round"/>
  <g transform="rotate(-24 232 84)">
    <rect x="204" y="78" width="56" height="12" rx="3" fill="#fdba74" stroke="#f97316" stroke-width="2"/>
    <path d="M260 78 L272 84 L260 90 Z" fill="#1d4ed8"/>
  </g>
</svg>
